<svg xmlns="http://www.w3.org/2000/svg" viewBox="0 0 271 241"><path fill="#052d64" d="m4.131 7.722-3.369.423.68 5.177c.375 2.848 1.067 5.569 1.539 6.048 1.183 1.198 8.55 2.534 14.269 2.586 2.613.024 4.75.235 4.75.469 0 .234 1.762 6.197 3.916 13.25C28.07 42.729 35.069 66.275 41.47 88s13.497 45.293 15.768 52.373c8.083 25.194 15.341 32.449 36.802 36.784 3.593.726 32.898 1.251 85.71 1.537l80.25.434V155H96.317l-6.158-6.413C79.916 137.92 81.012 136.864 108 131.396c28.647-5.804 130.067-25.535 140.5-27.334l10-1.724.662-4.919c.365-2.705.702-17.558.75-33.006L260 36.326l-45.164-.663c-24.84-.365-71.394-.663-103.452-.663H53.096L48.76 21.25 44.423 7.5l-18.461-.101c-10.154-.055-19.978.09-21.831.323m93.496 180.693c-17.595 6.513-22.44 31.1-8.26 41.916 18.344 13.992 44.167-.989 39.603-22.975-2.812-13.544-19.188-23.441-31.343-18.941m134.557-.263c-8.417 1.495-16.895 9.172-19.194 17.383-6.342 22.652 20.828 39.604 39.202 24.458 17.754-14.634 2.808-45.893-20.008-41.841" fill-rule="evenodd"/></svg>